<mxfile host="65bd71144e">
    <diagram id="3Ep8cOLKTp2xV2-i5Mx_" name="Page-1">
        <mxGraphModel dx="2560" dy="1343" grid="1" gridSize="10" guides="1" tooltips="1" connect="1" arrows="1" fold="1" page="1" pageScale="1" pageWidth="850" pageHeight="1100" math="0" shadow="0">
            <root>
                <mxCell id="0"/>
                <mxCell id="1" parent="0"/>
                <mxCell id="2" value="" style="edgeStyle=none;html=1;strokeColor=#FF0000;fontSize=11;fontColor=#FFFFFF;endArrow=classic;endFill=1;entryX=0;entryY=0.5;entryDx=0;entryDy=0;" edge="1" parent="1" target="10">
                    <mxGeometry relative="1" as="geometry">
                        <mxPoint x="80" y="100" as="sourcePoint"/>
                        <mxPoint x="150" y="110" as="targetPoint"/>
                    </mxGeometry>
                </mxCell>
                <mxCell id="3" value="Visiteur" style="shape=umlActor;verticalLabelPosition=bottom;verticalAlign=top;html=1;outlineConnect=0;fillColor=#fff2cc;strokeColor=#FF0000;" vertex="1" parent="1">
                    <mxGeometry x="40" y="60" width="30" height="60" as="geometry"/>
                </mxCell>
                <mxCell id="4" value="Consultant" style="shape=umlActor;verticalLabelPosition=bottom;verticalAlign=top;html=1;outlineConnect=0;fillColor=#fff2cc;strokeColor=#FF0000;" vertex="1" parent="1">
                    <mxGeometry x="40" y="660" width="30" height="60" as="geometry"/>
                </mxCell>
                <mxCell id="5" style="edgeStyle=none;html=1;strokeColor=#FF0000;fontSize=11;fontColor=#FFFFFF;endArrow=block;endFill=0;" edge="1" parent="1" source="6">
                    <mxGeometry relative="1" as="geometry">
                        <mxPoint x="55" y="150" as="targetPoint"/>
                    </mxGeometry>
                </mxCell>
                <mxCell id="6" value="Client" style="shape=umlActor;verticalLabelPosition=bottom;verticalAlign=top;html=1;outlineConnect=0;fillColor=#fff2cc;strokeColor=#FF0000;strokeWidth=1;" vertex="1" parent="1">
                    <mxGeometry x="40" y="340" width="30" height="60" as="geometry"/>
                </mxCell>
                <mxCell id="7" value="Admin" style="shape=umlActor;verticalLabelPosition=bottom;verticalAlign=top;html=1;outlineConnect=0;fillColor=#fff2cc;strokeColor=#FF0000;" vertex="1" parent="1">
                    <mxGeometry x="40" y="1180" width="30" height="60" as="geometry"/>
                </mxCell>
                <mxCell id="8" value="consulter les hôtels" style="ellipse;whiteSpace=wrap;html=1;strokeColor=#FF0000;fillColor=#fff2cc;fontColor=#000000;" vertex="1" parent="1">
                    <mxGeometry x="400" y="140" width="140" height="40" as="geometry"/>
                </mxCell>
                <mxCell id="9" value="créer une réservation" style="ellipse;whiteSpace=wrap;html=1;strokeColor=#FF0000;fillColor=#fff2cc;fontColor=#000000;" vertex="1" parent="1">
                    <mxGeometry x="400" y="20" width="140" height="40" as="geometry"/>
                </mxCell>
                <mxCell id="10" value="afficher la liste des hôtels" style="ellipse;whiteSpace=wrap;html=1;strokeColor=#FF0000;fillColor=#fff2cc;fontColor=#000000;" vertex="1" parent="1">
                    <mxGeometry x="170" y="80" width="140" height="40" as="geometry"/>
                </mxCell>
                <mxCell id="11" value="valider la réservation" style="ellipse;whiteSpace=wrap;html=1;strokeColor=#FF0000;fillColor=#fff2cc;fontColor=#000000;" vertex="1" parent="1">
                    <mxGeometry x="170" y="360" width="140" height="40" as="geometry"/>
                </mxCell>
                <mxCell id="12" value="&lt;span style=&quot;color: rgb(255, 255, 255);&quot;&gt;extend&lt;/span&gt;" style="edgeStyle=none;html=1;fontSize=11;fontColor=#000000;dashed=1;strokeColor=#FF0000;entryX=1;entryY=0;entryDx=0;entryDy=0;exitX=0;exitY=0.5;exitDx=0;exitDy=0;" edge="1" parent="1" source="9" target="10">
                    <mxGeometry x="0.1001" y="12" relative="1" as="geometry">
                        <mxPoint x="300" y="30" as="sourcePoint"/>
                        <mxPoint x="340" y="90" as="targetPoint"/>
                        <Array as="points"/>
                        <mxPoint as="offset"/>
                    </mxGeometry>
                </mxCell>
                <mxCell id="13" value="&lt;span style=&quot;color: rgb(255, 255, 255);&quot;&gt;extend&lt;/span&gt;" style="edgeStyle=none;html=1;fontSize=11;fontColor=#000000;dashed=1;strokeColor=#FF0000;entryX=1;entryY=1;entryDx=0;entryDy=0;exitX=0;exitY=0.5;exitDx=0;exitDy=0;" edge="1" parent="1" source="8" target="10">
                    <mxGeometry x="-0.0945" y="13" relative="1" as="geometry">
                        <mxPoint x="310" y="170" as="sourcePoint"/>
                        <mxPoint x="360" y="87.09" as="targetPoint"/>
                        <Array as="points"/>
                        <mxPoint as="offset"/>
                    </mxGeometry>
                </mxCell>
                <mxCell id="14" value="supprimer une réservation" style="ellipse;whiteSpace=wrap;html=1;strokeColor=#FF0000;fillColor=#fff2cc;fontColor=#000000;" vertex="1" parent="1">
                    <mxGeometry x="640" y="280" width="160" height="40" as="geometry"/>
                </mxCell>
                <mxCell id="15" value="afficher les réservations" style="ellipse;whiteSpace=wrap;html=1;strokeColor=#FF0000;fillColor=#fff2cc;fontColor=#000000;" vertex="1" parent="1">
                    <mxGeometry x="170" y="680" width="140" height="40" as="geometry"/>
                </mxCell>
                <mxCell id="16" value="&lt;span style=&quot;color: rgb(255, 255, 255);&quot;&gt;extend&lt;/span&gt;" style="edgeStyle=none;html=1;fontSize=11;fontColor=#000000;dashed=1;strokeColor=#FF0000;entryX=0.5;entryY=1;entryDx=0;entryDy=0;exitX=0.5;exitY=0;exitDx=0;exitDy=0;" edge="1" parent="1" source="8" target="9">
                    <mxGeometry y="10" relative="1" as="geometry">
                        <mxPoint x="424.99510818549356" y="120.00298873881863" as="sourcePoint"/>
                        <mxPoint x="505.62" y="147.09" as="targetPoint"/>
                        <Array as="points"/>
                        <mxPoint as="offset"/>
                    </mxGeometry>
                </mxCell>
                <mxCell id="17" value="&lt;span style=&quot;color: rgb(255, 255, 255);&quot;&gt;include&lt;/span&gt;" style="edgeStyle=none;html=1;fontSize=11;fontColor=#000000;dashed=1;strokeColor=#FF0000;exitX=0.5;exitY=1;exitDx=0;exitDy=0;entryX=0.5;entryY=0;entryDx=0;entryDy=0;" edge="1" parent="1" target="22" source="11">
                    <mxGeometry x="-0.12" y="20" relative="1" as="geometry">
                        <mxPoint x="240" y="320" as="sourcePoint"/>
                        <mxPoint x="730" y="630" as="targetPoint"/>
                        <Array as="points">
                            <mxPoint x="240" y="520"/>
                            <mxPoint x="440" y="520"/>
                            <mxPoint x="640" y="520"/>
                            <mxPoint x="960" y="520"/>
                        </Array>
                        <mxPoint as="offset"/>
                    </mxGeometry>
                </mxCell>
                <mxCell id="19" value="" style="edgeStyle=none;html=1;strokeColor=#FF0000;fontSize=11;fontColor=#FFFFFF;endArrow=classic;endFill=1;entryX=0;entryY=0.5;entryDx=0;entryDy=0;" edge="1" parent="1" target="11">
                    <mxGeometry relative="1" as="geometry">
                        <mxPoint x="80" y="379.5" as="sourcePoint"/>
                        <mxPoint x="140" y="380" as="targetPoint"/>
                    </mxGeometry>
                </mxCell>
                <mxCell id="20" value="" style="edgeStyle=none;html=1;strokeColor=#FF0000;fontSize=11;fontColor=#FFFFFF;endArrow=classic;endFill=1;entryX=0;entryY=0.5;entryDx=0;entryDy=0;" edge="1" parent="1" target="15">
                    <mxGeometry relative="1" as="geometry">
                        <mxPoint x="80" y="699.5" as="sourcePoint"/>
                        <mxPoint x="160" y="699.5" as="targetPoint"/>
                    </mxGeometry>
                </mxCell>
                <mxCell id="21" value="" style="edgeStyle=none;html=1;strokeColor=#FF0000;fontSize=11;fontColor=#FFFFFF;endArrow=classic;endFill=1;entryX=0;entryY=0.5;entryDx=0;entryDy=0;" edge="1" parent="1" target="29">
                    <mxGeometry relative="1" as="geometry">
                        <mxPoint x="80" y="1219.5" as="sourcePoint"/>
                        <mxPoint x="170" y="1220" as="targetPoint"/>
                    </mxGeometry>
                </mxCell>
                <mxCell id="22" value="authentification" style="ellipse;whiteSpace=wrap;html=1;strokeColor=#FF0000;fillColor=#fff2cc;fontColor=#000000;" vertex="1" parent="1">
                    <mxGeometry x="890" y="680" width="140" height="40" as="geometry"/>
                </mxCell>
                <mxCell id="23" value="&lt;span style=&quot;color: rgb(255, 255, 255);&quot;&gt;include&lt;/span&gt;" style="edgeStyle=none;html=1;fontSize=11;fontColor=#000000;dashed=1;strokeColor=#FF0000;exitX=0.5;exitY=0;exitDx=0;exitDy=0;entryX=0;entryY=0.5;entryDx=0;entryDy=0;" edge="1" parent="1" target="22" source="15">
                    <mxGeometry x="-0.033" y="20" relative="1" as="geometry">
                        <mxPoint x="240" y="560" as="sourcePoint"/>
                        <mxPoint x="760" y="440" as="targetPoint"/>
                        <Array as="points">
                            <mxPoint x="240" y="560"/>
                            <mxPoint x="490" y="560"/>
                            <mxPoint x="600" y="560"/>
                            <mxPoint x="840" y="560"/>
                            <mxPoint x="840" y="700"/>
                        </Array>
                        <mxPoint as="offset"/>
                    </mxGeometry>
                </mxCell>
                <mxCell id="24" value="consulter les réservations" style="ellipse;whiteSpace=wrap;html=1;strokeColor=#FF0000;fillColor=#fff2cc;fontColor=#000000;" vertex="1" parent="1">
                    <mxGeometry x="405" y="680" width="155" height="40" as="geometry"/>
                </mxCell>
                <mxCell id="27" value="&lt;span style=&quot;color: rgb(255, 255, 255);&quot;&gt;extend&lt;/span&gt;" style="edgeStyle=none;html=1;fontSize=11;fontColor=#000000;dashed=1;strokeColor=#FF0000;exitX=0;exitY=0.5;exitDx=0;exitDy=0;entryX=1;entryY=0.5;entryDx=0;entryDy=0;" edge="1" parent="1" source="24" target="15">
                    <mxGeometry x="-0.0526" y="-20" relative="1" as="geometry">
                        <mxPoint x="289.4974746830585" y="714.1421356237311" as="sourcePoint"/>
                        <mxPoint x="280" y="760" as="targetPoint"/>
                        <Array as="points"/>
                        <mxPoint as="offset"/>
                    </mxGeometry>
                </mxCell>
                <mxCell id="29" value="gestion du site" style="ellipse;whiteSpace=wrap;html=1;strokeColor=#FF0000;fillColor=#fff2cc;fontColor=#000000;" vertex="1" parent="1">
                    <mxGeometry x="170" y="1200" width="140" height="40" as="geometry"/>
                </mxCell>
                <mxCell id="31" value="&lt;span style=&quot;color: rgb(255, 255, 255);&quot;&gt;include&lt;/span&gt;" style="edgeStyle=none;html=1;fontSize=11;fontColor=#000000;dashed=1;strokeColor=#FF0000;entryX=0.5;entryY=1;entryDx=0;entryDy=0;exitX=0.5;exitY=0;exitDx=0;exitDy=0;" edge="1" parent="1" target="22" source="29">
                    <mxGeometry x="0.1333" y="20" relative="1" as="geometry">
                        <mxPoint x="240" y="840" as="sourcePoint"/>
                        <mxPoint x="240" y="860" as="targetPoint"/>
                        <Array as="points">
                            <mxPoint x="240" y="840"/>
                            <mxPoint x="960" y="840"/>
                        </Array>
                        <mxPoint as="offset"/>
                    </mxGeometry>
                </mxCell>
                <mxCell id="32" value="gestion des utilisateurs" style="ellipse;whiteSpace=wrap;html=1;strokeColor=#FF0000;fillColor=#fff2cc;fontColor=#000000;" vertex="1" parent="1">
                    <mxGeometry x="408.38" y="960" width="138.33" height="40" as="geometry"/>
                </mxCell>
                <mxCell id="35" value="&lt;span style=&quot;color: rgb(255, 255, 255);&quot;&gt;extend&lt;/span&gt;" style="edgeStyle=none;html=1;fontSize=11;fontColor=#000000;dashed=1;strokeColor=#FF0000;exitX=0;exitY=0.5;exitDx=0;exitDy=0;entryX=1;entryY=0;entryDx=0;entryDy=0;" edge="1" parent="1" source="32" target="29">
                    <mxGeometry x="0.016" y="-32" relative="1" as="geometry">
                        <mxPoint x="289.4974746830585" y="1234.142135623731" as="sourcePoint"/>
                        <mxPoint x="240" y="1320" as="targetPoint"/>
                        <Array as="points"/>
                        <mxPoint as="offset"/>
                    </mxGeometry>
                </mxCell>
                <mxCell id="37" value="modifier une réservation" style="ellipse;whiteSpace=wrap;html=1;strokeColor=#FF0000;fillColor=#fff2cc;fontColor=#000000;" vertex="1" parent="1">
                    <mxGeometry x="640" y="440" width="160" height="40" as="geometry"/>
                </mxCell>
                <mxCell id="38" value="&lt;span style=&quot;color: rgb(255, 255, 255);&quot;&gt;extend&lt;/span&gt;" style="edgeStyle=none;html=1;fontSize=11;fontColor=#000000;dashed=1;strokeColor=#FF0000;entryX=1;entryY=1;entryDx=0;entryDy=0;exitX=0;exitY=0.5;exitDx=0;exitDy=0;" edge="1" parent="1" source="37" target="40">
                    <mxGeometry x="0.2759" y="26" relative="1" as="geometry">
                        <mxPoint x="390.5" y="445.86" as="sourcePoint"/>
                        <mxPoint x="279.9974746830585" y="400.0021356237311" as="targetPoint"/>
                        <Array as="points"/>
                        <mxPoint x="-1" as="offset"/>
                    </mxGeometry>
                </mxCell>
                <mxCell id="39" value="&lt;span style=&quot;color: rgb(255, 255, 255);&quot;&gt;extend&lt;/span&gt;" style="edgeStyle=none;html=1;fontSize=11;fontColor=#000000;dashed=1;strokeColor=#FF0000;entryX=1;entryY=0;entryDx=0;entryDy=0;exitX=0;exitY=0.5;exitDx=0;exitDy=0;" edge="1" parent="1" source="14" target="40">
                    <mxGeometry x="0.2759" y="-26" relative="1" as="geometry">
                        <mxPoint x="370.5" y="297.07" as="sourcePoint"/>
                        <mxPoint x="259.9974746830585" y="342.927864376269" as="targetPoint"/>
                        <Array as="points"/>
                        <mxPoint x="-1" as="offset"/>
                    </mxGeometry>
                </mxCell>
                <mxCell id="40" value="consulter ses réservations" style="ellipse;whiteSpace=wrap;html=1;strokeColor=#FF0000;fillColor=#fff2cc;fontColor=#000000;" vertex="1" parent="1">
                    <mxGeometry x="400" y="360" width="160" height="40" as="geometry"/>
                </mxCell>
                <mxCell id="41" value="&lt;span style=&quot;color: rgb(255, 255, 255);&quot;&gt;extend&lt;/span&gt;" style="edgeStyle=none;html=1;fontSize=11;fontColor=#000000;dashed=1;strokeColor=#FF0000;entryX=1;entryY=0.5;entryDx=0;entryDy=0;exitX=0;exitY=0.5;exitDx=0;exitDy=0;" edge="1" parent="1" source="40" target="11">
                    <mxGeometry x="0.1001" y="12" relative="1" as="geometry">
                        <mxPoint x="371.17" y="357.07" as="sourcePoint"/>
                        <mxPoint x="289.99825402658763" y="425.80968034851594" as="targetPoint"/>
                        <Array as="points"/>
                        <mxPoint as="offset"/>
                    </mxGeometry>
                </mxCell>
                <mxCell id="43" value="supprimer une réservation" style="ellipse;whiteSpace=wrap;html=1;strokeColor=#FF0000;fillColor=#fff2cc;fontColor=#000000;" vertex="1" parent="1">
                    <mxGeometry x="643.43" y="600" width="160" height="40" as="geometry"/>
                </mxCell>
                <mxCell id="44" value="modifier une réservation" style="ellipse;whiteSpace=wrap;html=1;strokeColor=#FF0000;fillColor=#fff2cc;fontColor=#000000;" vertex="1" parent="1">
                    <mxGeometry x="643.43" y="760" width="160" height="40" as="geometry"/>
                </mxCell>
                <mxCell id="45" value="&lt;span style=&quot;color: rgb(255, 255, 255);&quot;&gt;extend&lt;/span&gt;" style="edgeStyle=none;html=1;fontSize=11;fontColor=#000000;dashed=1;strokeColor=#FF0000;exitX=0;exitY=0.5;exitDx=0;exitDy=0;entryX=1;entryY=1;entryDx=0;entryDy=0;" edge="1" parent="1" source="44" target="24">
                    <mxGeometry x="0.3022" y="27" relative="1" as="geometry">
                        <mxPoint x="393.93" y="765.86" as="sourcePoint"/>
                        <mxPoint x="550" y="750" as="targetPoint"/>
                        <Array as="points"/>
                        <mxPoint as="offset"/>
                    </mxGeometry>
                </mxCell>
                <mxCell id="46" value="&lt;span style=&quot;color: rgb(255, 255, 255);&quot;&gt;extend&lt;/span&gt;" style="edgeStyle=none;html=1;fontSize=11;fontColor=#000000;dashed=1;strokeColor=#FF0000;exitX=0;exitY=0.5;exitDx=0;exitDy=0;entryX=1;entryY=0;entryDx=0;entryDy=0;" edge="1" parent="1" source="43" target="24">
                    <mxGeometry x="0.3022" y="-27" relative="1" as="geometry">
                        <mxPoint x="373.93" y="617.0699999999999" as="sourcePoint"/>
                        <mxPoint x="570" y="640" as="targetPoint"/>
                        <Array as="points"/>
                        <mxPoint as="offset"/>
                    </mxGeometry>
                </mxCell>
                <mxCell id="47" value="afficher les réservations" style="ellipse;whiteSpace=wrap;html=1;strokeColor=#FF0000;fillColor=#fff2cc;fontColor=#000000;" vertex="1" parent="1">
                    <mxGeometry x="406.71000000000004" y="1200" width="140" height="40" as="geometry"/>
                </mxCell>
                <mxCell id="48" value="consulter les réservations" style="ellipse;whiteSpace=wrap;html=1;strokeColor=#FF0000;fillColor=#fff2cc;fontColor=#000000;" vertex="1" parent="1">
                    <mxGeometry x="641.71" y="1200" width="155" height="40" as="geometry"/>
                </mxCell>
                <mxCell id="49" value="&lt;span style=&quot;color: rgb(255, 255, 255);&quot;&gt;extend&lt;/span&gt;" style="edgeStyle=none;html=1;fontSize=11;fontColor=#000000;dashed=1;strokeColor=#FF0000;exitX=0;exitY=0.5;exitDx=0;exitDy=0;entryX=1;entryY=0.5;entryDx=0;entryDy=0;" edge="1" parent="1" source="48" target="47">
                    <mxGeometry x="0.0886" y="-30" relative="1" as="geometry">
                        <mxPoint x="526.2074746830585" y="1234.142135623731" as="sourcePoint"/>
                        <mxPoint x="516.71" y="1280" as="targetPoint"/>
                        <Array as="points"/>
                        <mxPoint as="offset"/>
                    </mxGeometry>
                </mxCell>
                <mxCell id="50" value="supprimer une réservation" style="ellipse;whiteSpace=wrap;html=1;strokeColor=#FF0000;fillColor=#fff2cc;fontColor=#000000;" vertex="1" parent="1">
                    <mxGeometry x="880.14" y="1120" width="160" height="40" as="geometry"/>
                </mxCell>
                <mxCell id="51" value="modifier une réservation" style="ellipse;whiteSpace=wrap;html=1;strokeColor=#FF0000;fillColor=#fff2cc;fontColor=#000000;" vertex="1" parent="1">
                    <mxGeometry x="880.14" y="1280" width="160" height="40" as="geometry"/>
                </mxCell>
                <mxCell id="52" value="&lt;span style=&quot;color: rgb(255, 255, 255);&quot;&gt;extend&lt;/span&gt;" style="edgeStyle=none;html=1;fontSize=11;fontColor=#000000;dashed=1;strokeColor=#FF0000;exitX=0;exitY=0.5;exitDx=0;exitDy=0;entryX=1;entryY=1;entryDx=0;entryDy=0;" edge="1" parent="1" source="51" target="48">
                    <mxGeometry x="0.2581" y="25" relative="1" as="geometry">
                        <mxPoint x="630.64" y="1285.8600000000001" as="sourcePoint"/>
                        <mxPoint x="786.71" y="1270" as="targetPoint"/>
                        <Array as="points"/>
                        <mxPoint as="offset"/>
                    </mxGeometry>
                </mxCell>
                <mxCell id="53" value="&lt;span style=&quot;color: rgb(255, 255, 255);&quot;&gt;extend&lt;/span&gt;" style="edgeStyle=none;html=1;fontSize=11;fontColor=#000000;dashed=1;strokeColor=#FF0000;exitX=0;exitY=0.5;exitDx=0;exitDy=0;entryX=1;entryY=0;entryDx=0;entryDy=0;" edge="1" parent="1" source="50" target="48">
                    <mxGeometry x="0.2581" y="-25" relative="1" as="geometry">
                        <mxPoint x="610.64" y="1137.07" as="sourcePoint"/>
                        <mxPoint x="806.71" y="1160" as="targetPoint"/>
                        <Array as="points"/>
                        <mxPoint as="offset"/>
                    </mxGeometry>
                </mxCell>
                <mxCell id="54" value="&lt;span style=&quot;color: rgb(255, 255, 255);&quot;&gt;extend&lt;/span&gt;" style="edgeStyle=none;html=1;fontSize=11;fontColor=#000000;dashed=1;strokeColor=#FF0000;exitX=0;exitY=0.5;exitDx=0;exitDy=0;entryX=1;entryY=0.5;entryDx=0;entryDy=0;" edge="1" parent="1" source="47" target="29">
                    <mxGeometry x="-0.034" y="-30" relative="1" as="geometry">
                        <mxPoint x="365.0000000000003" y="1150" as="sourcePoint"/>
                        <mxPoint x="270.0000000000003" y="1150" as="targetPoint"/>
                        <Array as="points"/>
                        <mxPoint as="offset"/>
                    </mxGeometry>
                </mxCell>
                <mxCell id="55" value="supprimer un compte" style="ellipse;whiteSpace=wrap;html=1;strokeColor=#FF0000;fillColor=#fff2cc;fontColor=#000000;" vertex="1" parent="1">
                    <mxGeometry x="640.14" y="880" width="156.57" height="40" as="geometry"/>
                </mxCell>
                <mxCell id="56" value="modifier le role du compte" style="ellipse;whiteSpace=wrap;html=1;strokeColor=#FF0000;fillColor=#fff2cc;fontColor=#000000;" vertex="1" parent="1">
                    <mxGeometry x="640.14" y="1040" width="156.57" height="40" as="geometry"/>
                </mxCell>
                <mxCell id="57" value="&lt;span style=&quot;color: rgb(255, 255, 255);&quot;&gt;extend&lt;/span&gt;" style="edgeStyle=none;html=1;fontSize=11;fontColor=#000000;dashed=1;strokeColor=#FF0000;exitX=0;exitY=0.5;exitDx=0;exitDy=0;entryX=1;entryY=1;entryDx=0;entryDy=0;" edge="1" parent="1" source="56" target="32">
                    <mxGeometry x="0.2067" y="23" relative="1" as="geometry">
                        <mxPoint x="390.63999999999993" y="1035.8600000000001" as="sourcePoint"/>
                        <mxPoint x="533.71" y="984" as="targetPoint"/>
                        <Array as="points"/>
                        <mxPoint x="1" as="offset"/>
                    </mxGeometry>
                </mxCell>
                <mxCell id="58" value="&lt;span style=&quot;color: rgb(255, 255, 255);&quot;&gt;extend&lt;/span&gt;" style="edgeStyle=none;html=1;fontSize=11;fontColor=#000000;dashed=1;strokeColor=#FF0000;exitX=0;exitY=0.5;exitDx=0;exitDy=0;entryX=1;entryY=0;entryDx=0;entryDy=0;" edge="1" parent="1" source="55" target="32">
                    <mxGeometry x="0.2067" y="-23" relative="1" as="geometry">
                        <mxPoint x="370.63999999999993" y="887.0699999999999" as="sourcePoint"/>
                        <mxPoint x="533.8056593790486" y="955.8051285614472" as="targetPoint"/>
                        <Array as="points"/>
                        <mxPoint x="1" as="offset"/>
                    </mxGeometry>
                </mxCell>
                <mxCell id="60" value="créer un hotel" style="ellipse;whiteSpace=wrap;html=1;strokeColor=#FF0000;fillColor=#fff2cc;fontColor=#000000;" vertex="1" parent="1">
                    <mxGeometry x="405" y="1440" width="145" height="40" as="geometry"/>
                </mxCell>
                <mxCell id="61" value="supprimer un hotel" style="ellipse;whiteSpace=wrap;html=1;strokeColor=#FF0000;fillColor=#fff2cc;fontColor=#000000;" vertex="1" parent="1">
                    <mxGeometry x="640.14" y="1360" width="156.57" height="40" as="geometry"/>
                </mxCell>
                <mxCell id="62" value="consulter un hotel" style="ellipse;whiteSpace=wrap;html=1;strokeColor=#FF0000;fillColor=#fff2cc;fontColor=#000000;" vertex="1" parent="1">
                    <mxGeometry x="640" y="1520" width="156.57" height="40" as="geometry"/>
                </mxCell>
                <mxCell id="63" value="&lt;span style=&quot;color: rgb(255, 255, 255);&quot;&gt;extend&lt;/span&gt;" style="edgeStyle=none;html=1;fontSize=11;fontColor=#000000;dashed=1;strokeColor=#FF0000;exitX=0;exitY=0.5;exitDx=0;exitDy=0;entryX=1;entryY=1;entryDx=0;entryDy=0;" edge="1" parent="1" source="62" target="60">
                    <mxGeometry x="0.1835" y="22" relative="1" as="geometry">
                        <mxPoint x="387.25999999999993" y="1515.8600000000001" as="sourcePoint"/>
                        <mxPoint x="530.33" y="1464" as="targetPoint"/>
                        <Array as="points"/>
                        <mxPoint x="1" as="offset"/>
                    </mxGeometry>
                </mxCell>
                <mxCell id="64" value="&lt;span style=&quot;color: rgb(255, 255, 255);&quot;&gt;extend&lt;/span&gt;" style="edgeStyle=none;html=1;fontSize=11;fontColor=#000000;dashed=1;strokeColor=#FF0000;exitX=0;exitY=0.5;exitDx=0;exitDy=0;entryX=1;entryY=0;entryDx=0;entryDy=0;" edge="1" parent="1" source="61" target="60">
                    <mxGeometry x="0.1844" y="-22" relative="1" as="geometry">
                        <mxPoint x="367.25999999999993" y="1367.07" as="sourcePoint"/>
                        <mxPoint x="530.4256593790486" y="1435.8051285614472" as="targetPoint"/>
                        <Array as="points"/>
                        <mxPoint as="offset"/>
                    </mxGeometry>
                </mxCell>
                <mxCell id="65" value="&lt;span style=&quot;color: rgb(255, 255, 255);&quot;&gt;extend&lt;/span&gt;" style="edgeStyle=none;html=1;fontSize=11;fontColor=#000000;dashed=1;strokeColor=#FF0000;exitX=0;exitY=0.5;exitDx=0;exitDy=0;entryX=1;entryY=1;entryDx=0;entryDy=0;" edge="1" parent="1" source="60" target="29">
                    <mxGeometry x="0.0071" y="30" relative="1" as="geometry">
                        <mxPoint x="348.8799999999944" y="1310" as="sourcePoint"/>
                        <mxPoint x="229.9974746830585" y="1535.8578643762692" as="targetPoint"/>
                        <Array as="points"/>
                        <mxPoint as="offset"/>
                    </mxGeometry>
                </mxCell>
                <mxCell id="66" value="modifier un hotel" style="ellipse;whiteSpace=wrap;html=1;strokeColor=#FF0000;fillColor=#fff2cc;fontColor=#000000;" vertex="1" parent="1">
                    <mxGeometry x="640.14" y="1440" width="156.57" height="40" as="geometry"/>
                </mxCell>
                <mxCell id="67" value="&lt;span style=&quot;color: rgb(255, 255, 255);&quot;&gt;extend&lt;/span&gt;" style="edgeStyle=none;html=1;fontSize=11;fontColor=#000000;dashed=1;strokeColor=#FF0000;exitX=0;exitY=0.5;exitDx=0;exitDy=0;entryX=1;entryY=0.5;entryDx=0;entryDy=0;" edge="1" parent="1" source="66" target="60">
                    <mxGeometry x="-0.1707" y="-20" relative="1" as="geometry">
                        <mxPoint x="370.63999999999993" y="1447.07" as="sourcePoint"/>
                        <mxPoint x="526.1200037607035" y="1525.762498897725" as="targetPoint"/>
                        <Array as="points"/>
                        <mxPoint as="offset"/>
                    </mxGeometry>
                </mxCell>
                <mxCell id="68" value="créer une chambre" style="ellipse;whiteSpace=wrap;html=1;strokeColor=#FF0000;fillColor=#fff2cc;fontColor=#000000;" vertex="1" parent="1">
                    <mxGeometry x="400" y="1680" width="160" height="40" as="geometry"/>
                </mxCell>
                <mxCell id="69" value="supprimer une chambre" style="ellipse;whiteSpace=wrap;html=1;strokeColor=#FF0000;fillColor=#fff2cc;fontColor=#000000;" vertex="1" parent="1">
                    <mxGeometry x="640" y="1600" width="156.57" height="40" as="geometry"/>
                </mxCell>
                <mxCell id="70" value="consulter une chambre" style="ellipse;whiteSpace=wrap;html=1;strokeColor=#FF0000;fillColor=#fff2cc;fontColor=#000000;" vertex="1" parent="1">
                    <mxGeometry x="639.86" y="1760" width="156.57" height="40" as="geometry"/>
                </mxCell>
                <mxCell id="71" value="&lt;span style=&quot;color: rgb(255, 255, 255);&quot;&gt;extend&lt;/span&gt;" style="edgeStyle=none;html=1;fontSize=11;fontColor=#000000;dashed=1;strokeColor=#FF0000;exitX=0;exitY=0.5;exitDx=0;exitDy=0;entryX=1;entryY=1;entryDx=0;entryDy=0;" edge="1" parent="1" source="70" target="68">
                    <mxGeometry x="0.1835" y="22" relative="1" as="geometry">
                        <mxPoint x="387.11999999999995" y="1755.8600000000001" as="sourcePoint"/>
                        <mxPoint x="530.19" y="1704" as="targetPoint"/>
                        <Array as="points"/>
                        <mxPoint x="1" as="offset"/>
                    </mxGeometry>
                </mxCell>
                <mxCell id="72" value="&lt;span style=&quot;color: rgb(255, 255, 255);&quot;&gt;extend&lt;/span&gt;" style="edgeStyle=none;html=1;fontSize=11;fontColor=#000000;dashed=1;strokeColor=#FF0000;exitX=0;exitY=0.5;exitDx=0;exitDy=0;entryX=1;entryY=0;entryDx=0;entryDy=0;" edge="1" parent="1" source="69" target="68">
                    <mxGeometry x="0.1844" y="-22" relative="1" as="geometry">
                        <mxPoint x="367.11999999999995" y="1607.07" as="sourcePoint"/>
                        <mxPoint x="530.2856593790486" y="1675.8051285614472" as="targetPoint"/>
                        <Array as="points"/>
                        <mxPoint as="offset"/>
                    </mxGeometry>
                </mxCell>
                <mxCell id="73" value="modifier une chambre" style="ellipse;whiteSpace=wrap;html=1;strokeColor=#FF0000;fillColor=#fff2cc;fontColor=#000000;" vertex="1" parent="1">
                    <mxGeometry x="640" y="1680" width="156.57" height="40" as="geometry"/>
                </mxCell>
                <mxCell id="74" value="&lt;span style=&quot;color: rgb(255, 255, 255);&quot;&gt;extend&lt;/span&gt;" style="edgeStyle=none;html=1;fontSize=11;fontColor=#000000;dashed=1;strokeColor=#FF0000;exitX=0;exitY=0.5;exitDx=0;exitDy=0;entryX=1;entryY=0.5;entryDx=0;entryDy=0;" edge="1" parent="1" source="73" target="68">
                    <mxGeometry x="-0.1736" y="-20" relative="1" as="geometry">
                        <mxPoint x="370.49999999999994" y="1687.07" as="sourcePoint"/>
                        <mxPoint x="525.9800037607035" y="1765.762498897725" as="targetPoint"/>
                        <Array as="points"/>
                        <mxPoint as="offset"/>
                    </mxGeometry>
                </mxCell>
                <mxCell id="75" value="&lt;span style=&quot;color: rgb(255, 255, 255);&quot;&gt;extend&lt;/span&gt;" style="edgeStyle=none;html=1;fontSize=11;fontColor=#000000;dashed=1;strokeColor=#FF0000;exitX=0.5;exitY=0;exitDx=0;exitDy=0;entryX=0.5;entryY=1;entryDx=0;entryDy=0;" edge="1" parent="1" source="68" target="60">
                    <mxGeometry x="0.1835" y="22" relative="1" as="geometry">
                        <mxPoint x="517.2600000000037" y="1600" as="sourcePoint"/>
                        <mxPoint x="400.0000037607041" y="1534.237501102275" as="targetPoint"/>
                        <Array as="points"/>
                        <mxPoint x="1" as="offset"/>
                    </mxGeometry>
                </mxCell>
            </root>
        </mxGraphModel>
    </diagram>
</mxfile>